<svg xmlns="http://www.w3.org/2000/svg" viewBox="0 0 500 500"><g id="freepik--Floor--inject-109"><path d="M404.79,265.54c-86.05-49.69-225.11-49.68-310.6,0s-85,130.23,1,179.91,225.12,49.68,310.61,0S490.85,315.22,404.79,265.54Z" style="fill:#f5f5f5"></path></g><g id="freepik--Plant--inject-109"><path d="M68.24,275c-1.72-1.65-3.69-3.45-3.81-5.83a5.21,5.21,0,0,1,3.43-4.87,7.87,7.87,0,0,1,6.17.47,16.55,16.55,0,0,1,5,3.95,39.61,39.61,0,0,1,9.33,34.61,2.92,2.92,0,0,1-1.17,2.08c-1.15.61-2.46-.46-3.25-1.5a24,24,0,0,1-3.82-7.57c-.69-2.3-.38-4.85-1.25-7C76.7,284,72.34,278.94,68.24,275Z" style="fill:#BA68C8"></path><path d="M86.14,302.31h0a.46.46,0,0,1-.46-.46,45,45,0,0,0-16.85-34.74.46.46,0,1,1,.57-.72,46,46,0,0,1,17.2,35.46A.46.46,0,0,1,86.14,302.31Z" style="fill:#fff"></path><path d="M80.5,320.57c-2.9.93-6.54.32-8.22-2.22-2-3-.73-7.59-3.38-10-1.48-1.35-3.65-1.49-5.61-1.89S59.15,305,58.85,303c-.38-2.63,2.84-4.81,2.39-7.43s-4-3.39-5.06-5.78c-1-2.18.74-4.83,3-5.64s4.74-.26,7,.57,4.41,1.93,6.78,2.22,5.31-.18,7.12,1.52c2.42,2.26,1,6.57,2.91,9.31,1.25,1.83,3.62,2.46,5.42,3.75A8.66,8.66,0,0,1,92,308.64c-.06,3-1.64,5.18-3.91,6.91S83.48,319.61,80.5,320.57Z" style="fill:#BA68C8"></path><path d="M80.5,320.57c-2.9.93-6.54.32-8.22-2.22-2-3-.73-7.59-3.38-10-1.48-1.35-3.65-1.49-5.61-1.89S59.15,305,58.85,303c-.38-2.63,2.84-4.81,2.39-7.43s-4-3.39-5.06-5.78c-1-2.18.74-4.83,3-5.64s4.74-.26,7,.57,4.41,1.93,6.78,2.22,5.31-.18,7.12,1.52c2.42,2.26,1,6.57,2.91,9.31,1.25,1.83,3.62,2.46,5.42,3.75A8.66,8.66,0,0,1,92,308.64c-.06,3-1.64,5.18-3.91,6.91S83.48,319.61,80.5,320.57Z" style="opacity:0.2"></path><path d="M79.19,300l0,0c-.44-.63-.89-1.25-1.36-1.84A33.34,33.34,0,0,0,61.14,287a.46.46,0,0,0-.26.89,32.38,32.38,0,0,1,16.2,10.77c.13.16.25.34.37.5-5.19-1.91-10.49-.82-13.31,1.45a.46.46,0,0,0-.07.65.46.46,0,0,0,.35.17.43.43,0,0,0,.29-.1c2.8-2.25,8.57-3.26,13.81-.72a32.49,32.49,0,0,1,5.56,16.21.45.45,0,0,0,.45.43h0a.46.46,0,0,0,.43-.49A33.27,33.27,0,0,0,79.19,300Z" style="fill:#fff"></path></g><g id="freepik--Shadows--inject-109"><path d="M235.89,361.77c-21.51-12.42-56.27-12.42-77.65,0s-21.26,32.56.25,45,56.28,12.43,77.66,0S257.41,374.2,235.89,361.77Z" style="fill:#e6e6e6"></path><path d="M305.36,248.13c-13.83-8-36.17-8-49.9,0s-13.66,20.92.16,28.9,36.17,8,49.9,0S319.18,256.11,305.36,248.13Z" style="fill:#e6e6e6"></path><path d="M379.3,266.15c-11.25-6.49-29.44-6.49-40.62,0s-11.12,17,.13,23.53,29.44,6.5,40.62,0S390.55,272.65,379.3,266.15Z" style="fill:#e6e6e6"></path><path d="M386.77,404.06,371,394.84a10,10,0,0,0-1.36-.66c.68-8.65-4.71-17.44-16.15-24-21.51-12.42-56.28-12.42-77.65,0s-21.26,32.56.25,45c13.13,7.58,31.2,10.52,48.14,8.85l11.67,6.83a10.16,10.16,0,0,0,10.16.05l40.69-23.27A2,2,0,0,0,386.77,404.06Z" style="fill:#e6e6e6"></path></g><g id="freepik--Trees--inject-109"><path d="M259.66,87.08l-7.92-3.63v8.22c47.87,53.35,23.18,140,16.13,165.13h0c-1.45,2.75-.3,5.87,3.47,8,5.42,3.13,14.18,3.13,19.56,0a7.5,7.5,0,0,0,3.87-4.54l.15,0C302.62,222.84,309,134,259.66,87.08Z" style="fill:#BA68C8"></path><path d="M259.66,87.08l-7.92-3.63v8.22c47.87,53.35,23.18,140,16.13,165.13h0c-1.45,2.75-.3,5.87,3.47,8,5.42,3.13,14.18,3.13,19.56,0a7.5,7.5,0,0,0,3.87-4.54l.15,0C302.62,222.84,309,134,259.66,87.08Z" style="opacity:0.30000000000000004"></path><path d="M174,123.4c5.11-4.1,11.3-7.25,18-10.07l5.43-13.3c-.52,3.91-1.06,7.83-1.59,11.75,4.21-1.64,8.59-3.2,13-4.81l5.91-10.83q-.66,4.58-1.31,9.15c13.69-5.09,27.54-11.07,38.26-21.84C220.88,59,184.79,72.82,174,123.4Z" style="fill:#BA68C8"></path><path d="M304,58.87a67.82,67.82,0,0,1,24.49-7.66c-32.42-20.92-72.2-11.27-76.75,32.24,10.1.8,19.49-4.24,29.42-10.57a60.18,60.18,0,0,0-11.63-8.36,49.92,49.92,0,0,1,15,6.22c4.85-3.16,9.87-6.5,15.18-9.52A49.63,49.63,0,0,0,288,56,26.72,26.72,0,0,1,304,58.87Z" style="fill:#BA68C8"></path><path d="M174,123.4c5.11-4.1,11.3-7.25,18-10.07l5.43-13.3c-.52,3.91-1.06,7.83-1.59,11.75,4.21-1.64,8.59-3.2,13-4.81l5.91-10.83q-.66,4.58-1.31,9.15c13.69-5.09,27.54-11.07,38.26-21.84C220.88,59,184.79,72.82,174,123.4Z" style="fill:#fff;opacity:0.4"></path><path d="M304,58.87a67.82,67.82,0,0,1,24.49-7.66c-32.42-20.92-72.2-11.27-76.75,32.24,10.1.8,19.49-4.24,29.42-10.57a60.18,60.18,0,0,0-11.63-8.36,49.92,49.92,0,0,1,15,6.22c4.85-3.16,9.87-6.5,15.18-9.52A49.63,49.63,0,0,0,288,56,26.72,26.72,0,0,1,304,58.87Z" style="fill:#fff;opacity:0.4"></path><path d="M251.74,83.45c-11.42,1.12-21.93,7.71-29,16.72s-11,20.27-12.41,31.66-.46,23,1.36,34.29C217,158.56,222.55,151,228,143.45L227.21,123q2.08,7.86,4.16,15.74c.77-1.09,1.56-2.17,2.32-3.26,2.24-3.16,4.48-6.35,6.61-9.6L239,108.42l4.5,12.3a81.44,81.44,0,0,0,4.61-9.08C251.75,103.07,254,92.48,251.74,83.45Z" style="fill:#BA68C8"></path><path d="M296.66,105.52c10.27,1,20.71,2.16,30.68,7.77-15.64-31.5-42.54-52-75.6-29.84,6.81,10,14.44,15.14,22.54,18a39.78,39.78,0,0,1-2.49-12.76c2.37,4.67,4.6,9.4,6.91,14.1a97.74,97.74,0,0,0,13.91,2.31,46.94,46.94,0,0,1-2.95-12.62A88.37,88.37,0,0,0,296.66,105.52Z" style="fill:#BA68C8"></path><path d="M251.74,83.45c-11.42,1.12-21.93,7.71-29,16.72s-11,20.27-12.41,31.66-.46,23,1.36,34.29C217,158.56,222.55,151,228,143.45L227.21,123q2.08,7.86,4.16,15.74c.77-1.09,1.56-2.17,2.32-3.26,2.24-3.16,4.48-6.35,6.61-9.6L239,108.42l4.5,12.3a81.44,81.44,0,0,0,4.61-9.08C251.75,103.07,254,92.48,251.74,83.45Z" style="fill:#fff;opacity:0.2"></path><path d="M296.66,105.52c10.27,1,20.71,2.16,30.68,7.77-15.64-31.5-42.54-52-75.6-29.84,6.81,10,14.44,15.14,22.54,18a39.78,39.78,0,0,1-2.49-12.76c2.37,4.67,4.6,9.4,6.91,14.1a97.74,97.74,0,0,0,13.91,2.31,46.94,46.94,0,0,1-2.95-12.62A88.37,88.37,0,0,0,296.66,105.52Z" style="fill:#fff;opacity:0.2"></path><path d="M399.6,144l-2.91-4.8L392,141.35c-12,8.05-48.58,99.77-48.58,133h0c0,1.73,1.16,3.46,3.44,4.77,4.56,2.64,11.93,2.64,16.47,0,2.5-1.45,3.6-3.4,3.34-5.3C366.7,260.19,374.78,196.37,399.6,144Z" style="fill:#BA68C8"></path><path d="M399.6,144l-2.91-4.8L392,141.35c-12,8.05-48.58,99.77-48.58,133h0c0,1.73,1.16,3.46,3.44,4.77,4.56,2.64,11.93,2.64,16.47,0,2.5-1.45,3.6-3.4,3.34-5.3C366.7,260.19,374.78,196.37,399.6,144Z" style="opacity:0.30000000000000004"></path><path d="M469.44,160.12a64.33,64.33,0,0,0-17-5.54l-6.84-10.39c1.09,3.24,2.21,6.48,3.32,9.72-3.85-.69-7.83-1.28-11.87-1.91l-6.83-8.2,2.64,7.54c-12.48-2-25.24-4.78-36.16-12.14C418.81,113.29,451.79,119,469.44,160.12Z" style="fill:#BA68C8"></path><path d="M348.18,127.08a58.65,58.65,0,0,0-22.08-2.41c24-23.2,59.44-21.66,70.59,14.53-8.45,2.37-17.26-.34-26.76-4a52,52,0,0,1,8.48-9.05,43.26,43.26,0,0,0-11.66,7.79c-4.65-1.87-9.47-3.87-14.49-5.54a42.76,42.76,0,0,1,9-6.41A23.1,23.1,0,0,0,348.18,127.08Z" style="fill:#BA68C8"></path><path d="M469.44,160.12a64.33,64.33,0,0,0-17-5.54l-6.84-10.39c1.09,3.24,2.21,6.48,3.32,9.72-3.85-.69-7.83-1.28-11.87-1.91l-6.83-8.2,2.64,7.54c-12.48-2-25.24-4.78-36.16-12.14C418.81,113.29,451.79,119,469.44,160.12Z" style="fill:#fff;opacity:0.4"></path><path d="M348.18,127.08a58.65,58.65,0,0,0-22.08-2.41c24-23.2,59.44-21.66,70.59,14.53-8.45,2.37-17.26-.34-26.76-4a52,52,0,0,1,8.48-9.05,43.26,43.26,0,0,0-11.66,7.79c-4.65-1.87-9.47-3.87-14.49-5.54a42.76,42.76,0,0,1,9-6.41A23.1,23.1,0,0,0,348.18,127.08Z" style="fill:#fff;opacity:0.4"></path><path d="M396.69,139.2c9.89-1,19.92,2.88,27.47,9.35s12.73,15.37,15.84,24.81,4.24,19.43,4.59,29.36c-5.82-5.53-11.78-11-17.67-16.52l-2.76-17.51-.9,14.07-2.52-2.38c-2.43-2.31-4.87-4.64-7.22-7l-1.83-15.05q-.87,5.61-1.76,11.2a67.54,67.54,0,0,1-5.44-6.94C400,155.87,396.29,147.25,396.69,139.2Z" style="fill:#BA68C8"></path><path d="M396.69,139.2c9.89-1,19.92,2.88,27.47,9.35s12.73,15.37,15.84,24.81,4.24,19.43,4.59,29.36c-5.82-5.53-11.78-11-17.67-16.52l-2.76-17.51-.9,14.07-2.52-2.38c-2.43-2.31-4.87-4.64-7.22-7l-1.83-15.05q-.87,5.61-1.76,11.2a67.54,67.54,0,0,1-5.44-6.94C400,155.87,396.29,147.25,396.69,139.2Z" style="fill:#fff;opacity:0.2"></path><path d="M362.23,165.48c-8.55,2.61-17.23,5.3-24.76,11.73,8-29.37,27.43-51.26,59.22-38-4.1,9.65-9.73,15.29-16.12,19.07a34.59,34.59,0,0,0,0-11.26c-1.23,4.36-2.34,8.76-3.51,13.14a84.67,84.67,0,0,1-11.43,4.29,40.18,40.18,0,0,0,.39-11.22A75.83,75.83,0,0,1,362.23,165.48Z" style="fill:#BA68C8"></path><path d="M362.23,165.48c-8.55,2.61-17.23,5.3-24.76,11.73,8-29.37,27.43-51.26,59.22-38-4.1,9.65-9.73,15.29-16.12,19.07a34.59,34.59,0,0,0,0-11.26c-1.23,4.36-2.34,8.76-3.51,13.14a84.67,84.67,0,0,1-11.43,4.29,40.18,40.18,0,0,0,.39-11.22A75.83,75.83,0,0,1,362.23,165.48Z" style="fill:#fff;opacity:0.2"></path></g><g id="freepik--Clouds--inject-109"><path d="M93.2,57.1c4.26-2.46,7.86-1.25,9,2.57a12.57,12.57,0,0,1,4.6-5.12c3.34-1.93,6-.38,6.06,3.45v1.76l4.48-2.58c2.34-1.35,4.24-.27,4.24,2.42a9.28,9.28,0,0,1-4.21,7.3l-38,21.92c-2.33,1.35-4.24.27-4.24-2.42a9.29,9.29,0,0,1,4.22-7.31l4.48-2.59V73.26C83.85,67.32,88,60.09,93.2,57.1Z" style="fill:#e6e6e6"></path><path d="M130.39,71.46c3.06-1.77,5.64-.9,6.46,1.84a9.12,9.12,0,0,1,3.3-3.68c2.4-1.38,4.35-.27,4.36,2.48v1.27l3.21-1.86c1.68-1,3.05-.19,3.05,1.74a6.65,6.65,0,0,1-3,5.24L120.5,94.22c-1.67,1-3,.19-3-1.74a6.72,6.72,0,0,1,3-5.24l3.22-1.86V83.06A14.76,14.76,0,0,1,130.39,71.46Z" style="fill:#e6e6e6"></path></g><g id="freepik--speech-bubble--inject-109"><path d="M125.24,163.47a2.74,2.74,0,0,0,1.37,2.37l28,16.14a.91.91,0,0,0,.83,0l.05,0,.05,0,4.06-2.25h0a.89.89,0,0,0,.45-.77l0-7.63,5.61.68a.58.58,0,0,0,.53-.17l3.86-2.13c.67-.21.58-1.57-.29-2.46l-9.67-10,0-10.39a2.85,2.85,0,0,0-.24-1.12,2.76,2.76,0,0,0-1.12-1.25l-28-16.14a.89.89,0,0,0-.88,0h0l-4.09,2.26h0a.92.92,0,0,0-.45.79Zm30.15-16.13-.09-.1Zm.24.33a.36.36,0,0,1-.07-.1A.36.36,0,0,0,155.63,147.67Zm.34.94s0-.08,0-.12S156,148.57,156,148.61ZM155,147l.1.09Z" style="fill:#BA68C8"></path><path d="M155.93,181.19a.89.89,0,0,1-.44.77l4.06-2.25h0a.89.89,0,0,0,.45-.77l0-7.63-4.08-.5Z" style="opacity:0.1"></path><path d="M158.75,144.44l-28-16.14a.89.89,0,0,0-.88,0h0l-4.09,2.26h0a.9.9,0,0,1,.91,0l28,16.13a2.78,2.78,0,0,1,1.16,1.33l4.06-2.35A2.76,2.76,0,0,0,158.75,144.44Z" style="fill:#fff;opacity:0.2"></path><path d="M160.08,157.2l0-10.39a2.85,2.85,0,0,0-.24-1.12L155.81,148a2.66,2.66,0,0,1,.21,1.05l0,10.39,4.09-2.28Z" style="fill:#fff;opacity:0.1"></path><path d="M169.75,167.21l-9.67-10L156,159.48h0l9.67,10c.75.78.92,1.89.52,2.32l3.86-2.13C170.71,169.46,170.62,168.1,169.75,167.21Z" style="fill:#fff;opacity:0.05"></path><path d="M140.08,144.24a13.41,13.41,0,0,1,6.09,10.55c0,8.9-5.85,11.92-6.15,12.08-.31-.51-6.1-10.24-6.07-19.13C134,143.86,136.71,142.29,140.08,144.24Zm0,10.63c1.73,1,3.14.19,3.14-1.8a6.88,6.88,0,0,0-3.12-5.41c-1.73-1-3.14-.19-3.14,1.8a6.88,6.88,0,0,0,3.12,5.41" style="fill:#fff"></path></g><g id="freepik--character-2--inject-109"><path d="M333.14,181c-5.61-3.46-11.73-3.71-13.67-.56l-3,4.38,5.44,4.14a19.71,19.71,0,0,0,4.2,3.45c.41.25.82.48,1.24.7l9.33,7.11,3.1-7.26C341.72,189.81,338.75,184.45,333.14,181Z" style="fill:#BA68C8"></path><path d="M333.14,181c-5.61-3.46-11.73-3.71-13.67-.56l-3,4.38,5.44,4.14a19.71,19.71,0,0,0,4.2,3.45c.41.25.82.48,1.24.7l9.33,7.11,3.1-7.26C341.72,189.81,338.75,184.45,333.14,181Z" style="fill:#BA68C8;opacity:0.2"></path><ellipse cx="321.71" cy="200.22" rx="18.14" ry="32.3" transform="translate(-17.52 369.06) rotate(-58.36)" style="fill:#BA68C8"></ellipse><ellipse cx="321.71" cy="200.22" rx="18.14" ry="32.3" transform="translate(-17.52 369.06) rotate(-58.36)" style="fill:#fff;opacity:0.2"></ellipse><path d="M351.18,384a3,3,0,0,0,2.66,0,6.93,6.93,0,0,0,3.53-4,22.63,22.63,0,0,0,1.08-6c.14-1.37.27-2.74.41-4.1A16.16,16.16,0,0,0,359,366a4.18,4.18,0,0,0-1.53-2.74l-7.74-11.73-8.82,5,8.7,9.68a6.07,6.07,0,0,1,1.56,4.11l-.05,9.24a6.34,6.34,0,0,1-.8,3A1.89,1.89,0,0,0,351.18,384Z" style="fill:#ffa8a7"></path><path d="M362,366.69a4.74,4.74,0,0,0-4.6-3.46A4.18,4.18,0,0,1,359,366a12.2,12.2,0,0,1,0,3.25c-.17,1.79-.35,3.58-.53,5.37a20.74,20.74,0,0,1-1,5.37,6.93,6.93,0,0,1-3.53,4,3,3,0,0,1-2.66,0,1.89,1.89,0,0,1-.9-1.37,6.55,6.55,0,0,1-1.29,1.68c-.32.31-.62.62-.86.9a2.85,2.85,0,0,0-.55,3.1c.56,1.05,1.86,1.42,3,1.61a13,13,0,0,0,5.24-.11,6.68,6.68,0,0,0,4.17-3,10.55,10.55,0,0,0,1-4.34L362,372c.09-1.08.17-2.15.2-3.23A7.79,7.79,0,0,0,362,366.69Z" style="fill:#37474f"></path><path d="M297,399.48c4.7.23,9.92-4.54,12.24-6.18s3.86-1.59,5-6.81l4.48-18.61-10.79-2.42-2.3,19.47a6.14,6.14,0,0,1-2,3.83l-6.65,5.93a19,19,0,0,1-3.6,2.62l-.23.13C293,398.37,293.78,399.33,297,399.48Z" style="fill:#ffa8a7"></path><path d="M314.17,386.49c-1.1,5.22-2.63,5.17-5,6.81s-7.54,6.41-12.24,6.18c-3.19-.15-4-1.11-3.89-2l-3.33,1.88a3.24,3.24,0,0,0-.72,5.16l0,0a7.32,7.32,0,0,0,4.31,1.63,13.6,13.6,0,0,0,8.51-2.15c2-1.31,3.67-3.17,5.88-4.1a35.44,35.44,0,0,1,3.69-1.06,6.22,6.22,0,0,0,3.27-1.91,6.4,6.4,0,0,0,1-4.33A16,16,0,0,0,314.17,386.49Z" style="fill:#37474f"></path><path d="M320.67,271.53a39.43,39.43,0,0,0,19.65-6.62,51.88,51.88,0,0,0-5.61-8.06l-32.43,2.92q-.48,4-.73,8A39.31,39.31,0,0,0,320.67,271.53Z" style="fill:#ffa8a7"></path><path d="M331.3,325.19c7.26-22.42,19.34-41.57,9-60.28a39,39,0,0,1-38.77,2.82c-1.6,24.82,3.15,46.27,8.27,56-1.95,11.72-3,45.12-3,45.12,5.41,5.13,12.37,1.85,12.37,1.85L327,344.92s14.45,13.57,15.89,15.39a9.62,9.62,0,0,0,8.84-6.82C340,333.08,338.27,330.18,331.3,325.19Z" style="fill:#37474f"></path><path d="M302.34,206.75a10.76,10.76,0,0,1-1.3-13.54,3.65,3.65,0,0,1,.65-7,10.47,10.47,0,0,1,3.93.56,19.13,19.13,0,0,0,6.75,0c2.24-.33,4.46-.81,6.72-1a13.67,13.67,0,0,1,6.65.95,7.44,7.44,0,0,1,4.3,4.94c1.74-.47,3.81.65,4.93,2.06a8.76,8.76,0,0,1,1.62,5.06c.07,1.8-.18,3.59-.27,5.39a12.28,12.28,0,0,0,.68,5.32c.81,1.94,2.42,3.53,2.93,5.57a5.6,5.6,0,0,1-6.86,6.78,14.66,14.66,0,0,0,.52-4.37c-.17,2-2.14,3.53-4,4.19a15.58,15.58,0,0,1-5.9.52l-7-.27-8.15-.32a11.15,11.15,0,0,1-4.26-.74,7.24,7.24,0,0,1-3.79-6.26C300.33,212.07,301.33,209.11,302.34,206.75Z" style="fill:#263238"></path><path d="M311,224.19h-3.5a11.12,11.12,0,0,0-10.12,6.51l-8.92,19.58c-8.11,2.29-13.71,6.61-21.15,7.16-1.44,0-6.53-2.53-8.53-3.56a.73.73,0,0,0-1,.48h0a1.86,1.86,0,0,0,.68,1.95l2.37,1.78c-4.78,1-8.52-1.75-10.17.39s-.49,5.51,4.66,7.29,11.69.86,18.18-.61,20.94-5.76,20.94-5.76C307,247.22,311,224.19,311,224.19Z" style="fill:#ffa8a7"></path><path d="M310.4,320.61c2.15-18.67,4.76-31.33,4.76-31.33-7.12-3.63-9.44-7.52-9.44-7.52,1.23,6.28,6.76,9.7,6.76,9.7C310.43,302.18,310.4,320.61,310.4,320.61Z" style="opacity:0.2"></path><path d="M327,344.92a39.2,39.2,0,0,0,.89-9.47l3.38-10.26-2.09,10.39c.37,3.41.72,9.25,0,11.46Z" style="opacity:0.2"></path><path d="M309.2,231.31a5.42,5.42,0,0,0,3.47.92,19.46,19.46,0,0,0,15.48-7.68l-3.44-.3V213.19l-12,4.61v6.39h-3.06a8.91,8.91,0,0,0-1.46,2.6A4.21,4.21,0,0,0,309.2,231.31Z" style="fill:#ffa8a7"></path><path d="M323.87,213.51c-1.94,4.38-5.81,8.14-11.12,8.76V217.8Z" style="opacity:0.2"></path><path d="M322.58,204.67a11,11,0,0,0-.13,2.8,3.24,3.24,0,0,0,.93,1.87,2.08,2.08,0,0,0,1.88.56,3.65,3.65,0,0,1,7.09-1.74,4.57,4.57,0,0,1-.76,3.81,8.54,8.54,0,0,1-3,2.54,3.1,3.1,0,0,1-3.69-1.45c-3.55,4.51-9.74,7.89-15.55,7.4a8.24,8.24,0,0,1-4.41-1.55c-2.2-1.7-2.36-4.27-2.64-6.8a36.26,36.26,0,0,1,.07-9.65,19.06,19.06,0,0,1,6.1-11.62C310.41,200.43,319.21,204,322.58,204.67Z" style="fill:#ffa8a7"></path><polygon points="310.49 203.58 306.52 208.48 310.21 209.75 310.49 203.58" style="fill:#f28f8f"></polygon><path d="M313.61,212.14l-3.1,1a1.93,1.93,0,0,0,2.1.94A1.72,1.72,0,0,0,313.61,212.14Z" style="fill:#f28f8f"></path><path d="M313.61,212.14l-3.1,1a1.93,1.93,0,0,0,2.1.94A1.72,1.72,0,0,0,313.61,212.14Z" style="opacity:0.30000000000000004"></path><path d="M311.59,214a1.79,1.79,0,0,0,1,.05,1.56,1.56,0,0,0,1-1.41,1.78,1.78,0,0,0-2,1.36Z" style="fill:#f28f8f"></path><path d="M316,204.6a1.11,1.11,0,1,1-1.06-1.15A1.11,1.11,0,0,1,316,204.6Z" style="fill:#263238"></path><path d="M306.73,203.82a1.11,1.11,0,1,1-1.06-1.15A1.12,1.12,0,0,1,306.73,203.82Z" style="fill:#263238"></path><path d="M305.85,199.39,303.33,201a1.58,1.58,0,0,1,.56-1.71A1.86,1.86,0,0,1,305.85,199.39Z" style="fill:#263238"></path><path d="M315.3,199.68l2.36,1.8a1.56,1.56,0,0,0-.4-1.75A1.85,1.85,0,0,0,315.3,199.68Z" style="fill:#263238"></path><path d="M336.64,258.31c-1.95-3.8-1.5-8.67,1.58-14.14,1.52-2.71.15-18.73.15-18.73l-10.22-.89a19.46,19.46,0,0,1-15.48,7.68,5.42,5.42,0,0,1-3.47-.92,4.21,4.21,0,0,1-1-4.52,8.91,8.91,0,0,1,1.46-2.6h-3c-3.57,3.18-10.32,16-10.74,22.94-.21,3.46,2.47,5.17,4.31,6.24a39.07,39.07,0,0,1,.44,6,24.12,24.12,0,0,0,8.95,2.66C319.77,263.32,327.36,262.46,336.64,258.31Z" style="fill:#BA68C8"></path><path d="M336.64,258.31c-1.95-3.8-1.5-8.67,1.58-14.14,1.52-2.71.15-18.73.15-18.73l-10.22-.89a19.46,19.46,0,0,1-15.48,7.68,5.42,5.42,0,0,1-3.47-.92,4.21,4.21,0,0,1-1-4.52,8.91,8.91,0,0,1,1.46-2.6h-3c-3.57,3.18-10.32,16-10.74,22.94-.21,3.46,2.47,5.17,4.31,6.24a39.07,39.07,0,0,1,.44,6,24.12,24.12,0,0,0,8.95,2.66C319.77,263.32,327.36,262.46,336.64,258.31Z" style="opacity:0.2"></path><path d="M333.07,324.89H330V296.18a6.61,6.61,0,0,1,3.3-5.71L346,283.15a3.48,3.48,0,0,1,3.55,0,3.52,3.52,0,0,1,1.78,3.07v28.13h-3V286.22a.51.51,0,0,0-.25-.44.5.5,0,0,0-.51,0l-12.69,7.33a3.56,3.56,0,0,0-1.77,3.07Z" style="fill:#e0e0e0"></path><g style="opacity:0.1"><path d="M333.07,324.89H330V296.18a6.61,6.61,0,0,1,3.3-5.71L346,283.15a3.48,3.48,0,0,1,3.55,0,3.52,3.52,0,0,1,1.78,3.07v28.13h-3V286.22a.51.51,0,0,0-.25-.44.5.5,0,0,0-.51,0l-12.69,7.33a3.56,3.56,0,0,0-1.77,3.07Z"></path></g><path d="M338.66,422.67a9,9,0,0,1,4.09-7.09,2.91,2.91,0,0,1,2.91-.29L342,413.18a2.8,2.8,0,0,0-3.06.2,9,9,0,0,0-4.1,7.09,2.83,2.83,0,0,0,1.23,2.65h0l3.6,2A3,3,0,0,1,338.66,422.67Z" style="fill:#37474f"></path><polygon points="345.66 415.29 345.66 415.29 345.66 415.29 345.66 415.29" style="fill:#37474f"></polygon><path d="M345.66,415.29h0a2.91,2.91,0,0,0-2.91.29,9,9,0,0,0-4.09,7.09,3,3,0,0,0,1,2.48,2.76,2.76,0,0,0,3.16-.13,9,9,0,0,0,4.1-7.09A2.87,2.87,0,0,0,345.66,415.29Z" style="fill:#455a64"></path><path d="M342.76,417c1.59-.92,2.88-.18,2.89,1.65a6.34,6.34,0,0,1-2.87,5c-1.6.92-2.89.18-2.89-1.64A6.33,6.33,0,0,1,342.76,417Z" style="fill:#455a64"></path><path d="M344.65,416.42a2.46,2.46,0,0,1,.52,1.66,6.75,6.75,0,0,1-3.07,5.32,2.37,2.37,0,0,1-1.89.35c.55.63,1.5.71,2.57.09a6.78,6.78,0,0,0,3.07-5.32A2,2,0,0,0,344.65,416.42Z" style="fill:#e0e0e0"></path><path d="M342.1,423.4a6.75,6.75,0,0,0,3.07-5.32,2.46,2.46,0,0,0-.52-1.66,2.36,2.36,0,0,0-1.89.34,6.78,6.78,0,0,0-3.08,5.32,2.54,2.54,0,0,0,.53,1.67A2.37,2.37,0,0,0,342.1,423.4Z" style="fill:#ebebeb"></path><path d="M341.58,421.16a3,3,0,0,1,1.37-2.37,1,1,0,0,1,1-.1l-.69-.39a.93.93,0,0,0-1,.06,3.05,3.05,0,0,0-1.38,2.38,1,1,0,0,0,.42.89h0l.65.36A1,1,0,0,1,341.58,421.16Z" style="fill:#e0e0e0"></path><path d="M343.92,418.69h0a1,1,0,0,0-1,.1,3,3,0,0,0-1.37,2.37,1,1,0,0,0,.32.83.93.93,0,0,0,1.06,0,3,3,0,0,0,1.37-2.38A1,1,0,0,0,343.92,418.69Z" style="fill:#fafafa"></path><path d="M323.47,413.26a9,9,0,0,1,4.09-7.09,2.91,2.91,0,0,1,2.91-.3l-3.71-2.1a2.8,2.8,0,0,0-3.06.19,9,9,0,0,0-4.1,7.1,2.86,2.86,0,0,0,1.23,2.65h0l3.61,2A3.06,3.06,0,0,1,323.47,413.26Z" style="fill:#37474f"></path><polygon points="330.47 405.87 330.47 405.87 330.47 405.87 330.47 405.87" style="fill:#37474f"></polygon><path d="M330.47,405.87h0a2.91,2.91,0,0,0-2.91.3,9,9,0,0,0-4.09,7.09,3.06,3.06,0,0,0,1,2.48,2.76,2.76,0,0,0,3.15-.13,9.05,9.05,0,0,0,4.1-7.09A2.88,2.88,0,0,0,330.47,405.87Z" style="fill:#455a64"></path><path d="M327.57,407.58c1.59-.92,2.88-.18,2.89,1.64a6.35,6.35,0,0,1-2.87,5c-1.59.92-2.89.18-2.89-1.65A6.31,6.31,0,0,1,327.57,407.58Z" style="fill:#455a64"></path><path d="M329.46,407a2.54,2.54,0,0,1,.53,1.67,6.76,6.76,0,0,1-3.08,5.32,2.36,2.36,0,0,1-1.89.34,2,2,0,0,0,2.57.1,6.79,6.79,0,0,0,3.07-5.32A2,2,0,0,0,329.46,407Z" style="fill:#e0e0e0"></path><path d="M326.91,414a6.76,6.76,0,0,0,3.08-5.32,2.54,2.54,0,0,0-.53-1.67,2.37,2.37,0,0,0-1.89.35,6.72,6.72,0,0,0-3.07,5.32,2.46,2.46,0,0,0,.52,1.66A2.36,2.36,0,0,0,326.91,414Z" style="fill:#ebebeb"></path><path d="M326.39,411.75a3,3,0,0,1,1.37-2.38,1,1,0,0,1,1-.1l-.69-.39a.94.94,0,0,0-1,.07,3,3,0,0,0-1.37,2.37.94.94,0,0,0,.41.89h0l.65.37A1,1,0,0,1,326.39,411.75Z" style="fill:#e0e0e0"></path><path d="M328.73,409.27h0a1,1,0,0,0-1,.1,3,3,0,0,0-1.37,2.38,1,1,0,0,0,.32.83.92.92,0,0,0,1.06-.05,3,3,0,0,0,1.37-2.37A1,1,0,0,0,328.73,409.27Z" style="fill:#fafafa"></path><path d="M376.35,401.81a9,9,0,0,1,4.09-7.09,2.91,2.91,0,0,1,2.91-.3l-3.72-2.1a2.8,2.8,0,0,0-3.06.19,9,9,0,0,0-4.09,7.1,2.84,2.84,0,0,0,1.23,2.65h0l3.6,2A3.06,3.06,0,0,1,376.35,401.81Z" style="fill:#37474f"></path><polygon points="383.35 394.42 383.35 394.42 383.35 394.42 383.35 394.42" style="fill:#37474f"></polygon><path d="M383.35,394.42h0a2.91,2.91,0,0,0-2.91.3,9,9,0,0,0-4.09,7.09,3.06,3.06,0,0,0,1,2.48,2.77,2.77,0,0,0,3.16-.13,9,9,0,0,0,4.09-7.1A2.85,2.85,0,0,0,383.35,394.42Z" style="fill:#455a64"></path><path d="M380.45,396.13c1.59-.92,2.88-.18,2.89,1.64a6.34,6.34,0,0,1-2.88,5c-1.59.92-2.88.18-2.89-1.65A6.32,6.32,0,0,1,380.45,396.13Z" style="fill:#455a64"></path><path d="M382.34,395.55a2.49,2.49,0,0,1,.52,1.67,6.75,6.75,0,0,1-3.07,5.32,2.36,2.36,0,0,1-1.89.34,2,2,0,0,0,2.57.1,6.79,6.79,0,0,0,3.07-5.32A2,2,0,0,0,382.34,395.55Z" style="fill:#e0e0e0"></path><path d="M379.79,402.54a6.75,6.75,0,0,0,3.07-5.32,2.49,2.49,0,0,0-.52-1.67,2.37,2.37,0,0,0-1.89.35,6.76,6.76,0,0,0-3.08,5.32,2.51,2.51,0,0,0,.53,1.66A2.36,2.36,0,0,0,379.79,402.54Z" style="fill:#ebebeb"></path><path d="M379.27,400.3a3,3,0,0,1,1.37-2.38,1,1,0,0,1,1-.1l-.69-.39a.94.94,0,0,0-1,.07,3,3,0,0,0-1.38,2.37,1,1,0,0,0,.41.89h0l.66.37A1,1,0,0,1,379.27,400.3Z" style="fill:#e0e0e0"></path><polygon points="381.61 397.82 381.61 397.82 381.61 397.82 381.61 397.82" style="fill:#37474f"></polygon><path d="M381.61,397.82h0a1,1,0,0,0-1,.1,3,3,0,0,0-1.37,2.38,1,1,0,0,0,.32.83.92.92,0,0,0,1.06-.05,3,3,0,0,0,1.37-2.37A1,1,0,0,0,381.61,397.82Z" style="fill:#fafafa"></path><path d="M385.22,314.17h0l-21.73-12.29h0a3,3,0,0,0-3.06,0L324,322.69a10.15,10.15,0,0,0-5.11,8.81v73.22a3,3,0,0,0,1.49,2.61h0l.08.05,21.65,12.24a1.19,1.19,0,0,0,.22.12h0a3,3,0,0,0,2.92-.06l36.45-21.05a10.15,10.15,0,0,0,5.08-8.79v-73A3,3,0,0,0,385.22,314.17Z" style="fill:#BA68C8"></path><path d="M340.68,417V343.83a10.15,10.15,0,0,1,5.11-8.81l36.43-20.84a3,3,0,0,1,3,0h0l-21.73-12.29h0a3,3,0,0,0-3.06,0L324,322.69a10.15,10.15,0,0,0-5.11,8.81v73.22a3,3,0,0,0,1.49,2.61h0l.08.05,21.65,12.24A3,3,0,0,1,340.68,417Z" style="opacity:0.2"></path><path d="M385.22,314.17a3,3,0,0,0-3,0L345.79,335a10.15,10.15,0,0,0-5.11,8.81V417a3,3,0,0,0,1.43,2.58,1.19,1.19,0,0,0,.22.12h0a3,3,0,0,0,2.92-.06l36.45-21.05a10.15,10.15,0,0,0,5.08-8.79v-73A3,3,0,0,0,385.22,314.17Z" style="opacity:0.4"></path><path d="M376.33,308.63c-1.47-1-5.44-3.07-5.44-3.07h0a3.07,3.07,0,0,0-3.1,0l-36.91,21.11a10.28,10.28,0,0,0-5.17,8.93v74.16a3.06,3.06,0,0,0,1.51,2.65h0l.08.05,4.13,2.33a4.21,4.21,0,0,0,2.8.49l.11,0-2.07-1.17,0,0V339.24a10.36,10.36,0,0,1,5.21-9L374.57,309a3.22,3.22,0,0,1,.95-.35l.81.46S376.44,308.71,376.33,308.63Z" style="fill:#e0e0e0"></path><path d="M360.37,345.41a1.23,1.23,0,0,0-.53-1.14h0l-1.06-.61,0,0,0,0h0a1.24,1.24,0,0,0-1.15.15,3.82,3.82,0,0,0-1.74,3l.16,55.05a1.2,1.2,0,0,0,.51,1.12h0l1.08.62h0a1.2,1.2,0,0,0,1.26-.11,3.85,3.85,0,0,0,1.73-3Z" style="fill:#BA68C8"></path><path d="M357.05,402.47l-.16-55.06a3.8,3.8,0,0,1,1.74-3,1.24,1.24,0,0,1,1.21-.14h0l-1.06-.61,0,0,0,0h0a1.24,1.24,0,0,0-1.15.15,3.82,3.82,0,0,0-1.74,3l.16,55.05a1.2,1.2,0,0,0,.51,1.12h0l1.08.62h0A1.24,1.24,0,0,1,357.05,402.47Z" style="opacity:0.30000000000000004"></path><path d="M360.37,345.41a1.23,1.23,0,0,0-.53-1.14,1.24,1.24,0,0,0-1.21.14,3.8,3.8,0,0,0-1.74,3l.16,55.06a1.24,1.24,0,0,0,.49,1.1,1.2,1.2,0,0,0,1.26-.11,3.85,3.85,0,0,0,1.73-3Z" style="opacity:0.5"></path><path d="M367.6,341.3a1.22,1.22,0,0,0-.53-1.13h0l-1.06-.61-.05,0,0,0h0a1.26,1.26,0,0,0-1.16.15,3.82,3.82,0,0,0-1.74,3l.16,55.05a1.2,1.2,0,0,0,.51,1.12h0l1.08.62h0a1.22,1.22,0,0,0,1.26-.11,3.82,3.82,0,0,0,1.73-3Z" style="fill:#BA68C8"></path><path d="M364.28,398.36l-.16-55.05a3.82,3.82,0,0,1,1.74-3,1.24,1.24,0,0,1,1.21-.13h0l-1.06-.61-.05,0,0,0h0a1.26,1.26,0,0,0-1.16.15,3.82,3.82,0,0,0-1.74,3l.16,55.05a1.2,1.2,0,0,0,.51,1.12h0l1.08.62h0A1.24,1.24,0,0,1,364.28,398.36Z" style="opacity:0.30000000000000004"></path><path d="M367.6,341.3a1.22,1.22,0,0,0-.53-1.13,1.24,1.24,0,0,0-1.21.13,3.82,3.82,0,0,0-1.74,3l.16,55.05a1.24,1.24,0,0,0,.49,1.11,1.22,1.22,0,0,0,1.26-.11,3.82,3.82,0,0,0,1.73-3Z" style="opacity:0.5"></path><path d="M374.83,337.2a1.2,1.2,0,0,0-.53-1.13h0l-1.06-.61-.05,0,0,0h0a1.26,1.26,0,0,0-1.16.15,3.82,3.82,0,0,0-1.74,3l.16,55.05a1.22,1.22,0,0,0,.51,1.12h0l1.08.62h0a1.22,1.22,0,0,0,1.26-.11,3.82,3.82,0,0,0,1.73-3Z" style="fill:#BA68C8"></path><path d="M371.51,394.26l-.16-55.05a3.82,3.82,0,0,1,1.74-3,1.24,1.24,0,0,1,1.21-.13h0l-1.06-.61-.05,0,0,0h0a1.26,1.26,0,0,0-1.16.15,3.82,3.82,0,0,0-1.74,3l.16,55.05a1.22,1.22,0,0,0,.51,1.12h0l1.08.62h0A1.24,1.24,0,0,1,371.51,394.26Z" style="opacity:0.30000000000000004"></path><path d="M374.83,337.2a1.2,1.2,0,0,0-.53-1.13,1.24,1.24,0,0,0-1.21.13,3.82,3.82,0,0,0-1.74,3l.16,55.05a1.24,1.24,0,0,0,.49,1.11,1.22,1.22,0,0,0,1.26-.11,3.82,3.82,0,0,0,1.73-3Z" style="opacity:0.5"></path><path d="M325.71,335.57v74.16a3.06,3.06,0,0,0,1.51,2.65h0l.08.05,4.13,2.33a4.21,4.21,0,0,0,2.8.49l.11,0-2.07-1.17,0,0V339.24a10.43,10.43,0,0,1,.9-4.19l-6.5-3.74A10.27,10.27,0,0,0,325.71,335.57Z" style="opacity:0.2"></path><path d="M376.33,308.63c-1.47-1-5.44-3.07-5.44-3.07h0a3.07,3.07,0,0,0-3.1,0l-36.91,21.11a10.27,10.27,0,0,0-4.23,4.67l6.5,3.74a10.41,10.41,0,0,1,4.31-4.79L374.57,309a3.22,3.22,0,0,1,.95-.35l.81.46S376.44,308.71,376.33,308.63Z" style="opacity:0.1"></path><path d="M334,225.1c-1.1,10.83,2.66,16.16,12.58,35,0,0-2.3,13.87-6.38,21.68-4.05,1.64-5.7,5-8,6.23a.76.76,0,0,0-.32,1.07c1,1.5,3.44.35,5.72-1-.17,3.15-1.25,3.54-2.72,5s3,2.15,6.69.71c4.59-1.76,4.08-3,4.82-4s-.09-5.41-.09-5.41l11-19.42a9.74,9.74,0,0,0,.24-8.16l-10.32-24.26a12.24,12.24,0,0,0-11.27-7.45Z" style="fill:#ffa8a7"></path><path d="M326.55,247.07a12.85,12.85,0,0,1-15.45,4.54,9.55,9.55,0,0,0,8.82,2.45C323,253.27,325.63,250.11,326.55,247.07Z" style="opacity:0.2"></path></g><g id="freepik--character-1--inject-109"><path d="M197.8,331.24c5.49,6.34,24.45,22.64,24.44,24.95,6.51.79,8.18-4.19,8.18-4.19l-3.82-6a95.74,95.74,0,0,1-6-10.92l-.14-.29A95.93,95.93,0,0,0,211.13,319h0Z" style="fill:#a66262"></path><path d="M176.37,331.84l-4,47.62c2.61,1.81,8.4.77,8.4.77,2.41-15,11.59-24.88,14.1-45.88Z" style="fill:#a66262"></path><path d="M233.9,358.8c-.4,1-.93,2-1.34,3.07-1.1,2.87-1.2,5.71-2.3,8.58a12.62,12.62,0,0,1-5.95,6.63,15.78,15.78,0,0,1-8.91,1.58,16.25,16.25,0,0,0,1.15,1.48,12.51,12.51,0,0,0,14.81-7.61c1.1-2.87,1.2-5.72,2.3-8.59.4-1,.94-2,1.34-3.07a6.13,6.13,0,0,0,.35-3.28s-.41-.54-1-1.39A6.26,6.26,0,0,1,233.9,358.8Z" style="fill:#f0f0f0"></path><path d="M230.68,350.53c-.31-.59-1.41-.32-1.41-.32l.49.76a8,8,0,0,1-2.22,1.41,1.94,1.94,0,0,0-1.14,1.34l-.09.36c0,.19-.13.42-.32.45a.34.34,0,0,1-.31-.16,1.05,1.05,0,0,1-.13-.35c-.05-.25-.15-.54-.24-.83a1.37,1.37,0,0,0-1.09-.94,6.12,6.12,0,0,0-3.84.71.82.82,0,0,0-.35,1c1.58,4-1.38,14-3.25,15.64l-.43.4c3.57-1.7,8.88-2.59,12.72,2.73a12.62,12.62,0,0,0,1.19-2.31c1.1-2.87,1.2-5.71,2.3-8.58.41-1,.94-2,1.34-3.07a6.26,6.26,0,0,0,.42-2.6A56,56,0,0,1,230.68,350.53Z" style="fill:#BA68C8"></path><path d="M230.68,350.53c-.31-.59-1.41-.32-1.41-.32l.49.76a8,8,0,0,1-2.22,1.41,1.94,1.94,0,0,0-1.14,1.34l-.09.36c0,.19-.13.42-.32.45a.34.34,0,0,1-.31-.16,1.05,1.05,0,0,1-.13-.35c-.05-.25-.15-.54-.24-.83a1.37,1.37,0,0,0-1.09-.94,6.12,6.12,0,0,0-3.84.71.82.82,0,0,0-.35,1c1.58,4-1.38,14-3.25,15.64l-.43.4c3.57-1.7,8.88-2.59,12.72,2.73a12.62,12.62,0,0,0,1.19-2.31c1.1-2.87,1.2-5.71,2.3-8.58.41-1,.94-2,1.34-3.07a6.26,6.26,0,0,0,.42-2.6A56,56,0,0,1,230.68,350.53Z" style="opacity:0.2"></path><path d="M216.35,370c-2.49,2.37-3.49,5-.95,8.63a15.78,15.78,0,0,0,8.91-1.58,12.68,12.68,0,0,0,4.76-4.32C225.23,367.44,219.92,368.33,216.35,370Z" style="fill:#fff"></path><path d="M179.68,387.7c-.93.63-1.93,1.14-2.85,1.76-2.55,1.73-4.25,4-6.79,5.75a12.66,12.66,0,0,1-8.67,2.05,15.75,15.75,0,0,1-8.22-3.78,15.79,15.79,0,0,0,.11,1.87,12.5,12.5,0,0,0,16.5,2.19c2.54-1.73,4.24-4,6.79-5.75.92-.62,1.92-1.13,2.85-1.76a6.15,6.15,0,0,0,2.16-2.5s0-.68-.06-1.72A6.31,6.31,0,0,1,179.68,387.7Z" style="fill:#f0f0f0"></path><path d="M181.74,379.08a.92.92,0,0,0-.61-.92l-.14.72a9.07,9.07,0,0,1-2.88-.08,2,2,0,0,0-1.71.45l-.27.25c-.15.13-.35.27-.52.19a.36.36,0,0,1-.17-.31.88.88,0,0,1,.1-.36c.09-.24.18-.53.27-.82a1.35,1.35,0,0,0-.36-1.39,6.18,6.18,0,0,0-3.55-1.61.83.83,0,0,0-.89.64c-1,4.2-9.1,10.71-11.57,11l-.58.08c3.9.63,8.77,2.93,8.89,9.49a13.19,13.19,0,0,0,2.29-1.21c2.54-1.73,4.24-4,6.79-5.75.92-.62,1.92-1.13,2.85-1.76a6.31,6.31,0,0,0,1.82-1.89A56.17,56.17,0,0,1,181.74,379.08Z" style="fill:#BA68C8"></path><path d="M181.74,379.08a.92.92,0,0,0-.61-.92l-.14.72a9.07,9.07,0,0,1-2.88-.08,2,2,0,0,0-1.71.45l-.27.25c-.15.13-.35.27-.52.19a.36.36,0,0,1-.17-.31.88.88,0,0,1,.1-.36c.09-.24.18-.53.27-.82a1.35,1.35,0,0,0-.36-1.39,6.18,6.18,0,0,0-3.55-1.61.83.83,0,0,0-.89.64c-1,4.2-9.1,10.71-11.57,11l-.58.08c3.9.63,8.77,2.93,8.89,9.49a13.19,13.19,0,0,0,2.29-1.21c2.54-1.73,4.24-4,6.79-5.75.92-.62,1.92-1.13,2.85-1.76a6.31,6.31,0,0,0,1.82-1.89A56.17,56.17,0,0,1,181.74,379.08Z" style="opacity:0.2"></path><path d="M158.86,386.93c-3.4.53-5.7,2.08-5.71,6.55a15.75,15.75,0,0,0,8.22,3.78,12.55,12.55,0,0,0,6.38-.84C167.63,389.86,162.76,387.56,158.86,386.93Z" style="fill:#fff"></path><path d="M172,268.75c-.94,18.82,2,35.7,5.49,41.66a94.75,94.75,0,0,0-2.54,22.3c9.24,6,21.7,3.15,21.7,3.15l.54-4c8.57-2.21,13.82-11,14.6-13.33l-7-9.91s5.29-16.12,5.83-19.75l-.17-1.08c2.05-7.5,2.44-15.14,1.47-19.29Z" style="fill:#455a64"></path><path d="M178.68,305.62c2.51-10.15,6.48-22.4,6.48-22.4-3.32-1.31-6.89-5-7.19-6.23,0,3.46,2.74,6.66,3.92,7.53A197,197,0,0,0,178.68,305.62Z" style="opacity:0.2"></path><path d="M197.2,331.84l6.44-21.4L202.3,310C200.08,313.91,197.73,327.17,197.2,331.84Z" style="opacity:0.2"></path><path d="M196.08,287.21a.81.81,0,0,0-.87.58c-.91,3.25-4.75,17-6,21.45a1.6,1.6,0,0,0,1,1.95,29,29,0,0,0,11.87.94,1.78,1.78,0,0,0,.73-.26l.18-.11a1.9,1.9,0,0,0,.75-.86l1-2.3s5.29-16.12,5.83-19.75l-.17-1.08C207.26,288.23,198.61,287.54,196.08,287.21Z" style="fill:#37474f"></path><path d="M186,209.63l-2.19-1.22A11.25,11.25,0,0,0,170.64,210l-18.31,17s-6.93-12.62-8.2-16.78c-.4-1.31.37-2.72.75-4a8.53,8.53,0,0,0,.44-4.05,10.76,10.76,0,0,1,.4-5.3.94.94,0,0,0-.95-1.22h-.2a2.19,2.19,0,0,0-1.34.54,3.12,3.12,0,0,0-.68,1.3,19.33,19.33,0,0,0-.78,3.7,17.6,17.6,0,0,1-1.49-7.63,10.75,10.75,0,0,0-.05-3,2.62,2.62,0,0,0-1.92-2.09,7.11,7.11,0,0,0-1.09,2.37,2.26,2.26,0,0,0-1.84,0,2,2,0,0,0-1,1.46,4.41,4.41,0,0,0-3.34,2.76,9.24,9.24,0,0,0-.56,4.34,24.93,24.93,0,0,0,5,13.36c2.38,9,4.48,19.15,7.85,27a6.73,6.73,0,0,0,9.92,2.91A287.15,287.15,0,0,0,177,225Z" style="fill:#a66262"></path><path d="M186,209.63l-2.19-1.22A11.25,11.25,0,0,0,170.64,210L156.22,223.4c1.44,7.33,8.34,12.42,8.34,12.42L177,225Z" style="fill:#BA68C8"></path><path d="M154.17,235.45a18.19,18.19,0,0,0-1.84-8.44l1-.89C154.18,227.26,155.9,230.32,154.17,235.45Z" style="opacity:0.2"></path><path d="M140,210.51a5.57,5.57,0,0,1,.16-7.69,4.2,4.2,0,0,0-2.58,3.63A4.69,4.69,0,0,0,140,210.51Z" style="opacity:0.2"></path><path d="M185.69,207l-3.73.4a9.2,9.2,0,0,0-6.76,4.14c-3.84,5.92-5.62,15-4.59,24.79,1.29,12.23.5,33.39.5,33.39,16.2,11.83,38.21,1.36,40.78-1.21l-2.35-21.3a10.47,10.47,0,0,1,.82-4.94c1.53-3.55,4.26-10.55,4.63-16a28.29,28.29,0,0,0-3-14L197.82,207Z" style="fill:#f0f0f0"></path><path d="M210.36,242.24a63.11,63.11,0,0,0,4.4-14c-1.5.9-3.1,1.8-3.72,3.3a26.49,26.49,0,0,0-1.5,15.29A10.35,10.35,0,0,1,210.36,242.24Z" style="opacity:0.1"></path><path d="M209.15,191a9.52,9.52,0,0,0,2.65-12.56,5.17,5.17,0,0,0,2.51-2.37,2.77,2.77,0,0,0-3.6-3.69,3.88,3.88,0,0,0-1.55-4.54,3.67,3.67,0,0,0-4.56.84,2.49,2.49,0,0,0-1.7-2.44,5,5,0,0,0-3.16.2c-1,.35-2,.85-3,1.18a23.08,23.08,0,0,1-5.39.69,10.82,10.82,0,0,0-5.2,1.38c-1.53,1-2.88,3.3-2,5.29a3,3,0,0,0-2.17-1.15,2.88,2.88,0,0,0-2.22.94c1.14.7,2.24,1.46,3.37,2.16a3.07,3.07,0,0,0-3.46,1.38,6.9,6.9,0,0,0-.61,3.66,48.68,48.68,0,0,0,2.51,14c.77,2.33,1.89,4.8,4.1,5.88Z" style="fill:#263238"></path><path d="M197.88,197.56v9.7a4.58,4.58,0,0,1-1.55,3.44,13,13,0,0,1-9.27,3.15,3.28,3.28,0,0,1-1.92-.59,2.53,2.53,0,0,1-.62-2.64,5.14,5.14,0,0,1,.7-1.43,4.39,4.39,0,0,0,.77-2.45v-9.18Z" style="fill:#a66262"></path><path d="M193.05,205.39a26.31,26.31,0,0,0,4.83,1v-8.79H186v2.06a9.64,9.64,0,0,0,1,1.71A11.83,11.83,0,0,0,193.05,205.39Z" style="opacity:0.2"></path><path d="M209.79,179.47a49.66,49.66,0,0,1-1.25,19.34,15.06,15.06,0,0,1-1.53,4,6.41,6.41,0,0,1-3.14,2.79,9.93,9.93,0,0,1-5.19,0c-3.15-.55-6.39-1.14-9.13-2.8s-4.91-4.65-4.65-7.85a5.47,5.47,0,0,1-5.24.29,5.55,5.55,0,0,1-2.87-4.44c-.13-1.79.91-3.78,2.67-4.13a3.82,3.82,0,0,1,3,.89,11.5,11.5,0,0,1,2.13,2.48,3.73,3.73,0,0,0,1.06,1.14,1.28,1.28,0,0,0,1.46,0,1.88,1.88,0,0,0,.42-1.59l-.18-4.05a1.62,1.62,0,0,1,.89-1.51,4,4,0,0,0,1.82-2.08,8.43,8.43,0,0,0,.51-2.44,1,1,0,0,1,1.36-.85A29.85,29.85,0,0,0,209.79,179.47Z" style="fill:#a66262"></path><polygon points="200.89 189.29 204.53 195.42 200.19 196.23 200.89 189.29" style="fill:#8c4949"></polygon><path d="M196,198.34l3.3,1.61a2.19,2.19,0,0,1-2.51.71A2,2,0,0,1,196,198.34Z" style="fill:#8c4949"></path><path d="M196,198.34l3.3,1.61a2.19,2.19,0,0,1-2.51.71A2,2,0,0,1,196,198.34Z" style="opacity:0.30000000000000004"></path><path d="M198,200.76a2,2,0,0,1-1.15-.1,1.78,1.78,0,0,1-.88-1.74,2,2,0,0,1,2,1.84Z" style="fill:#8c4949"></path><path d="M194.61,189.53a1.25,1.25,0,1,0,1.36-1.11A1.25,1.25,0,0,0,194.61,189.53Z" style="fill:#263238"></path><path d="M205.06,190.18a1.25,1.25,0,1,0,1.36-1.12A1.25,1.25,0,0,0,205.06,190.18Z" style="fill:#263238"></path><path d="M206.76,185.37l2.56,2.17a1.78,1.78,0,0,0-.34-2A2.11,2.11,0,0,0,206.76,185.37Z" style="fill:#263238"></path><path d="M196.16,184.15l-2.94,1.62a1.77,1.77,0,0,1,.73-1.89A2.11,2.11,0,0,1,196.16,184.15Z" style="fill:#263238"></path><polygon points="244.06 277.92 185.43 311.77 185.43 356.9 204.97 368.19 263.6 334.33 263.6 289.2 244.06 277.92" style="fill:#455a64"></polygon><polygon points="244.06 277.92 185.43 311.77 185.43 356.9 204.97 368.19 263.6 334.33 263.6 289.2 244.06 277.92" style="fill:#fff;opacity:0.5"></polygon><polygon points="185.43 311.77 204.97 323.05 204.97 368.19 185.43 356.9 185.43 311.77" style="opacity:0.1"></polygon><polygon points="185.43 311.77 244.06 277.92 263.6 289.2 204.97 323.05 185.43 311.77" style="fill:#fff;opacity:0.2"></polygon><path d="M205,323v5.08h0a8.65,8.65,0,0,0,4.55-7.62v-.08Z" style="fill:#ebebeb"></path><path d="M205,323v5.08h0a8.65,8.65,0,0,1-4.55-7.62v-.08Z" style="fill:#e0e0e0"></path><path d="M185.43,356.9v-5.08h0a8.66,8.66,0,0,1,4.54,7.62v.09Z" style="fill:#e0e0e0"></path><path d="M263.6,334.34v-5.08h0a8.65,8.65,0,0,0-4.55,7.62V337Z" style="fill:#ebebeb"></path><path d="M200.42,320.43c2.79-1.93,7.07-1.77,9.1,0L205,323.05Z" style="fill:#f0f0f0"></path><path d="M248.6,280.55c-2.79,1.92-7.06,1.77-9.09,0l4.55-2.63Z" style="fill:#f0f0f0"></path><path d="M185.43,311.77v6.47a6.31,6.31,0,0,0,5.09-3.53Z" style="fill:#e0e0e0"></path><path d="M205,368.19v-6.48a6.31,6.31,0,0,0-5.1,3.53Z" style="fill:#e0e0e0"></path><path d="M205,368.19v-6.48a6.28,6.28,0,0,1,5.09,3.53Z" style="fill:#ebebeb"></path><path d="M190.52,314.71c.95-2.87-.34-4.63-1.12-5.24l-4,2.3Z" style="fill:#f0f0f0"></path><path d="M263.6,289.2v6.47a6.31,6.31,0,0,1-5.1-3.53Z" style="fill:#ebebeb"></path><path d="M258.5,292.14c-.94-2.87.34-4.63,1.12-5.24l4,2.3Z" style="fill:#f0f0f0"></path><polygon points="196.4 363.24 196.4 318.11 193.75 316.57 193.75 361.71 196.4 363.24" style="fill:#e0e0e0"></polygon><polygon points="252.38 282.73 193.75 316.57 196.4 318.11 255.03 284.26 252.38 282.73" style="fill:#f0f0f0"></polygon><path d="M234.15,296.31c-1.12.39-3.27.54-4-.71V291l-1.79,1-1.46-3.31,3.48-2a2.51,2.51,0,0,1,3.75,2.19Z" style="fill:#455a64"></path><path d="M234.15,296.31c-1.12.39-3.27.54-4-.71V291l-1.79,1-1.46-3.31,3.48-2a2.51,2.51,0,0,1,3.75,2.19Z" style="fill:#fff;opacity:0.30000000000000004"></path><path d="M189.7,213.13c7.58,8.8,6.34,22.81,6.36,34.42s-.11,23.69,4.86,34.19a22.56,22.56,0,0,0,15.83-7.81c-.38-9.89-4.32-23.05-3.1-33.1s-1.76-28.57-1.76-28.57l-10.27-3.86Z" style="fill:#BA68C8"></path><path d="M189.7,213.13c7.58,8.8,6.34,22.81,6.36,34.42s-.11,23.69,4.86,34.19a22.56,22.56,0,0,0,15.83-7.81c-.38-9.89-4.32-23.05-3.1-33.1s-1.76-28.57-1.76-28.57l-10.27-3.86Z" style="fill:#fff;opacity:0.1"></path><path d="M201.62,208.4a16.92,16.92,0,0,1-6.83,10.9,22.07,22.07,0,0,0-5.09-6.17c3.47-1,6.42-4,8.18-7.18,0,0,.54.15.71.23A28.84,28.84,0,0,1,201.62,208.4Z" style="fill:#BA68C8"></path><path d="M201.62,208.4a16.92,16.92,0,0,1-6.83,10.9,22.07,22.07,0,0,0-5.09-6.17c3.47-1,6.42-4,8.18-7.18,0,0,.54.15.71.23A28.84,28.84,0,0,1,201.62,208.4Z" style="fill:#fff;opacity:0.30000000000000004"></path><path d="M183.39,212.26C177,225,174.12,246.91,174.3,277c-4.44-.87-6.88-6.54-6.88-6.54,1.82-26.27-2.49-55.4,7.15-61,3.53-1.9,4.61-2.51,11.12-2.51Z" style="fill:#BA68C8"></path><path d="M183.39,212.26C177,225,174.12,246.91,174.3,277c-4.44-.87-6.88-6.54-6.88-6.54,1.82-26.27-2.49-55.4,7.15-61,3.53-1.9,4.61-2.51,11.12-2.51Z" style="fill:#fff;opacity:0.1"></path><path d="M186,205.25c-2.9.55-7.52,6.44-7.19,10.9a11.48,11.48,0,0,1,4.59-3.89,6.61,6.61,0,0,1,1.74-2.93h0a4.39,4.39,0,0,0,.85-2.59Z" style="fill:#BA68C8"></path><path d="M186,205.25c-2.9.55-7.52,6.44-7.19,10.9a11.48,11.48,0,0,1,4.59-3.89,6.61,6.61,0,0,1,1.74-2.93h0a4.39,4.39,0,0,0,.85-2.59Z" style="fill:#fff;opacity:0.30000000000000004"></path><path d="M211.89,238.07l5.67,17.53c-1.36,12.07,2.44,24.35,1.13,32L216.77,290a4.44,4.44,0,0,0-.22,5.1l.46.71h0a1.77,1.77,0,0,0,.31,2.65l1.51,1.05a3.5,3.5,0,0,0,3.93.05l4.78-3.15a3.52,3.52,0,0,0,1.44-3.92l-2.12-7.17c1.57-12.51,2.78-21.09,3.52-26.09a29.44,29.44,0,0,0-.42-10.83l-3.21-14Z" style="fill:#a66262"></path><path d="M211.89,212.26l2.06.58a13.43,13.43,0,0,1,9.05,8.61l6.57,19.34C223.65,247,213,245.11,213,245.11l-2.11-9.85C203.45,222.3,210.28,214.37,211.89,212.26Z" style="fill:#BA68C8"></path><path d="M205,232.55a1.81,1.81,0,0,0-1.93.84,3.64,3.64,0,0,0-2.16-1.1,3.29,3.29,0,0,0-.26,2.52,2.22,2.22,0,0,0-1.63,1.32,2.35,2.35,0,0,0,2.1,1,3.64,3.64,0,0,0,1.13,2.35,2.25,2.25,0,0,0,1.62-2.24,1.29,1.29,0,0,0,1,.36,4.18,4.18,0,0,0,1.8-.33,3.28,3.28,0,0,0-.62-1.51,3,3,0,0,0-1.22-1A2.93,2.93,0,0,0,205,232.55Z" style="fill:#BA68C8"></path><path d="M205,232.55a1.81,1.81,0,0,0-1.93.84,3.64,3.64,0,0,0-2.16-1.1,3.29,3.29,0,0,0-.26,2.52,2.22,2.22,0,0,0-1.63,1.32,2.35,2.35,0,0,0,2.1,1,3.64,3.64,0,0,0,1.13,2.35,2.25,2.25,0,0,0,1.62-2.24,1.29,1.29,0,0,0,1,.36,4.18,4.18,0,0,0,1.8-.33,3.28,3.28,0,0,0-.62-1.51,3,3,0,0,0-1.22-1A2.93,2.93,0,0,0,205,232.55Z" style="fill:#fff;opacity:0.5"></path><path d="M203.89,234.9a1.3,1.3,0,1,1-1.8-.42A1.31,1.31,0,0,1,203.89,234.9Z" style="fill:#BA68C8"></path><path d="M203.89,234.9a1.3,1.3,0,1,1-1.8-.42A1.31,1.31,0,0,1,203.89,234.9Z" style="fill:#fff;opacity:0.7000000000000001"></path><path d="M210.41,245.38a1.53,1.53,0,0,0-1.44-1,3,3,0,0,0-.11-2,2.77,2.77,0,0,0-1.93.88,1.89,1.89,0,0,0-1.64-.61,2,2,0,0,0,.18,1.93,3,3,0,0,0-1.2,1.81,1.85,1.85,0,0,0,2.29.21,1.11,1.11,0,0,0,.17.87,3.35,3.35,0,0,0,1,1.16,2.81,2.81,0,0,0,.82-1.09,2.48,2.48,0,0,0,.17-1.28A2.45,2.45,0,0,0,210.41,245.38Z" style="fill:#BA68C8"></path><path d="M210.41,245.38a1.53,1.53,0,0,0-1.44-1,3,3,0,0,0-.11-2,2.77,2.77,0,0,0-1.93.88,1.89,1.89,0,0,0-1.64-.61,2,2,0,0,0,.18,1.93,3,3,0,0,0-1.2,1.81,1.85,1.85,0,0,0,2.29.21,1.11,1.11,0,0,0,.17.87,3.35,3.35,0,0,0,1,1.16,2.81,2.81,0,0,0,.82-1.09,2.48,2.48,0,0,0,.17-1.28A2.45,2.45,0,0,0,210.41,245.38Z" style="fill:#fff;opacity:0.5"></path><path d="M208.25,245.59a1.1,1.1,0,0,1-1.47.47,1.09,1.09,0,1,1,1.47-.47Z" style="fill:#BA68C8"></path><path d="M208.25,245.59a1.1,1.1,0,0,1-1.47.47,1.09,1.09,0,1,1,1.47-.47Z" style="fill:#fff;opacity:0.7000000000000001"></path><path d="M206.41,260.23a2.79,2.79,0,0,0-.64-3.14,5.52,5.52,0,0,0,2.34-2.83,5,5,0,0,0-3.65-1.21,3.4,3.4,0,0,0-1.44-2.84,3.56,3.56,0,0,0-2.13,2.79,5.52,5.52,0,0,0-3.84.92,3.39,3.39,0,0,0,2.79,3.12,2,2,0,0,0-.85,1.37,6.39,6.39,0,0,0-.1,2.78,4.92,4.92,0,0,0,2.44-.43,4.44,4.44,0,0,0,1.82-1.51A4.41,4.41,0,0,0,206.41,260.23Z" style="fill:#BA68C8"></path><path d="M206.41,260.23a2.79,2.79,0,0,0-.64-3.14,5.52,5.52,0,0,0,2.34-2.83,5,5,0,0,0-3.65-1.21,3.4,3.4,0,0,0-1.44-2.84,3.56,3.56,0,0,0-2.13,2.79,5.52,5.52,0,0,0-3.84.92,3.39,3.39,0,0,0,2.79,3.12,2,2,0,0,0-.85,1.37,6.39,6.39,0,0,0-.1,2.78,4.92,4.92,0,0,0,2.44-.43,4.44,4.44,0,0,0,1.82-1.51A4.41,4.41,0,0,0,206.41,260.23Z" style="fill:#fff;opacity:0.5"></path><path d="M203.27,257.84a2,2,0,1,1,1.2-2.53A2,2,0,0,1,203.27,257.84Z" style="fill:#BA68C8"></path><path d="M203.27,257.84a2,2,0,1,1,1.2-2.53A2,2,0,0,1,203.27,257.84Z" style="fill:#fff;opacity:0.7000000000000001"></path><path d="M211.33,267.32a1.58,1.58,0,0,0,.89-1.6,3.13,3.13,0,0,0,2.07-.36,2.91,2.91,0,0,0-1.13-1.88,2,2,0,0,0,.43-1.76,2,2,0,0,0-2,.41,3.16,3.16,0,0,0-2-1,1.93,1.93,0,0,0,0,2.39,1.11,1.11,0,0,0-.88.27,3.68,3.68,0,0,0-1.08,1.18,2.87,2.87,0,0,0,1.22.71,2.58,2.58,0,0,0,1.35,0A2.57,2.57,0,0,0,211.33,267.32Z" style="fill:#BA68C8"></path><path d="M211.33,267.32a1.58,1.58,0,0,0,.89-1.6,3.13,3.13,0,0,0,2.07-.36,2.91,2.91,0,0,0-1.13-1.88,2,2,0,0,0,.43-1.76,2,2,0,0,0-2,.41,3.16,3.16,0,0,0-2-1,1.93,1.93,0,0,0,0,2.39,1.11,1.11,0,0,0-.88.27,3.68,3.68,0,0,0-1.08,1.18,2.87,2.87,0,0,0,1.22.71,2.58,2.58,0,0,0,1.35,0A2.57,2.57,0,0,0,211.33,267.32Z" style="fill:#fff;opacity:0.5"></path><path d="M210.86,265.12a1.13,1.13,0,1,1,1.46-.65A1.14,1.14,0,0,1,210.86,265.12Z" style="fill:#BA68C8"></path><path d="M210.86,265.12a1.13,1.13,0,1,1,1.46-.65A1.14,1.14,0,0,1,210.86,265.12Z" style="fill:#fff;opacity:0.7000000000000001"></path><path d="M201.53,274.83a2.06,2.06,0,0,0,2.37.19,4.11,4.11,0,0,0,1.55,2.25,3.74,3.74,0,0,0,1.62-2.36,2.5,2.5,0,0,0,2.32-.44,2.66,2.66,0,0,0-1.56-2.1,4,4,0,0,0,.13-2.93,2.52,2.52,0,0,0-2.8,1.35c-.07-.42-.48-.7-.8-.89a4.76,4.76,0,0,0-2-.64,3.65,3.65,0,0,0-.19,1.83,3.32,3.32,0,0,0,.7,1.61A3.29,3.29,0,0,0,201.53,274.83Z" style="fill:#BA68C8"></path><path d="M201.53,274.83a2.06,2.06,0,0,0,2.37.19,4.11,4.11,0,0,0,1.55,2.25,3.74,3.74,0,0,0,1.62-2.36,2.5,2.5,0,0,0,2.32-.44,2.66,2.66,0,0,0-1.56-2.1,4,4,0,0,0,.13-2.93,2.52,2.52,0,0,0-2.8,1.35c-.07-.42-.48-.7-.8-.89a4.76,4.76,0,0,0-2-.64,3.65,3.65,0,0,0-.19,1.83,3.32,3.32,0,0,0,.7,1.61A3.29,3.29,0,0,0,201.53,274.83Z" style="fill:#fff;opacity:0.5"></path><path d="M203.88,273.08a1.49,1.49,0,0,1,1.38-1.57,1.48,1.48,0,1,1-1.38,1.57Z" style="fill:#BA68C8"></path><path d="M203.88,273.08a1.49,1.49,0,0,1,1.38-1.57,1.48,1.48,0,1,1-1.38,1.57Z" style="fill:#fff;opacity:0.7000000000000001"></path><path d="M202.08,220a1.23,1.23,0,0,0-1,1.06,2.51,2.51,0,0,0-1.64-.09,2.23,2.23,0,0,0,.53,1.64,1.51,1.51,0,0,0-.63,1.27,1.6,1.6,0,0,0,1.57,0,2.5,2.5,0,0,0,1.35,1.14,1.53,1.53,0,0,0,.38-1.84.87.87,0,0,0,.72,0,3.07,3.07,0,0,0,1-.71,2.25,2.25,0,0,0-.8-.76,1.37,1.37,0,0,1-1.55-1.68Z" style="fill:#BA68C8"></path><path d="M202.08,220a1.23,1.23,0,0,0-1,1.06,2.51,2.51,0,0,0-1.64-.09,2.23,2.23,0,0,0,.53,1.64,1.51,1.51,0,0,0-.63,1.27,1.6,1.6,0,0,0,1.57,0,2.5,2.5,0,0,0,1.35,1.14,1.53,1.53,0,0,0,.38-1.84.87.87,0,0,0,.72,0,3.07,3.07,0,0,0,1-.71,2.25,2.25,0,0,0-.8-.76,1.37,1.37,0,0,1-1.55-1.68Z" style="fill:#fff;opacity:0.5"></path><path d="M202.06,221.79a.88.88,0,1,1-1.23.24A.89.89,0,0,1,202.06,221.79Z" style="fill:#BA68C8"></path><path d="M202.06,221.79a.88.88,0,1,1-1.23.24A.89.89,0,0,1,202.06,221.79Z" style="fill:#fff;opacity:0.7000000000000001"></path><path d="M204.7,211.45a1,1,0,0,0-.24,1.23,2.61,2.61,0,0,0-1.43.69,2.22,2.22,0,0,0,1.32,1,1.2,1.2,0,0,0,.14,1.23,1.6,1.6,0,0,0,1.34-.7,2.82,2.82,0,0,0,1.75.21,1.25,1.25,0,0,0-.66-1.53.87.87,0,0,0,.58-.37,2.34,2.34,0,0,0,.49-1,2.49,2.49,0,0,0-1.09-.19,2.16,2.16,0,0,0-1,.28A2,2,0,0,0,204.7,211.45Z" style="fill:#BA68C8"></path><path d="M204.7,211.45a1,1,0,0,0-.24,1.23,2.61,2.61,0,0,0-1.43.69,2.22,2.22,0,0,0,1.32,1,1.2,1.2,0,0,0,.14,1.23,1.6,1.6,0,0,0,1.34-.7,2.82,2.82,0,0,0,1.75.21,1.25,1.25,0,0,0-.66-1.53.87.87,0,0,0,.58-.37,2.34,2.34,0,0,0,.49-1,2.49,2.49,0,0,0-1.09-.19,2.16,2.16,0,0,0-1,.28A2,2,0,0,0,204.7,211.45Z" style="fill:#fff;opacity:0.5"></path><path d="M205.62,212.77a.78.78,0,1,1-.91.75A.84.84,0,0,1,205.62,212.77Z" style="fill:#BA68C8"></path><path d="M205.62,212.77a.78.78,0,1,1-.91.75A.84.84,0,0,1,205.62,212.77Z" style="fill:#fff;opacity:0.7000000000000001"></path><path d="M176.28,227.65a1.82,1.82,0,0,0-2.11.06,3.64,3.64,0,0,0-1.58-1.83,3.33,3.33,0,0,0-1.19,2.24,2.26,2.26,0,0,0-2,.62,2.35,2.35,0,0,0,1.58,1.7,3.64,3.64,0,0,0,.17,2.59,2.23,2.23,0,0,0,2.34-1.47c.1.37.49.57.79.71a4.24,4.24,0,0,0,1.8.37,3.26,3.26,0,0,0,0-1.64,2.91,2.91,0,0,0-.78-1.34A3,3,0,0,0,176.28,227.65Z" style="fill:#BA68C8"></path><path d="M176.28,227.65a1.82,1.82,0,0,0-2.11.06,3.64,3.64,0,0,0-1.58-1.83,3.33,3.33,0,0,0-1.19,2.24,2.26,2.26,0,0,0-2,.62,2.35,2.35,0,0,0,1.58,1.7,3.64,3.64,0,0,0,.17,2.59,2.23,2.23,0,0,0,2.34-1.47c.1.37.49.57.79.71a4.24,4.24,0,0,0,1.8.37,3.26,3.26,0,0,0,0-1.64,2.91,2.91,0,0,0-.78-1.34A3,3,0,0,0,176.28,227.65Z" style="fill:#fff;opacity:0.5"></path><path d="M174.39,229.42a1.31,1.31,0,1,1-1.52-1.06A1.32,1.32,0,0,1,174.39,229.42Z" style="fill:#BA68C8"></path><path d="M174.39,229.42a1.31,1.31,0,1,1-1.52-1.06A1.32,1.32,0,0,1,174.39,229.42Z" style="fill:#fff;opacity:0.7000000000000001"></path><path d="M172.28,265.12a1,1,0,0,0-1.36.4,3.21,3.21,0,0,0-1.52-1.18,2.74,2.74,0,0,0-.19,2,1.26,1.26,0,0,0-1.14.82,2,2,0,0,0,1.48,1.08,3.7,3.7,0,0,0,.8,2c.67-.05,1.14-.67,1.14-1.54a1.08,1.08,0,0,0,.71.43,2.59,2.59,0,0,0,1.27,0,3.2,3.2,0,0,0-.44-1.28,2.93,2.93,0,0,0-.87-.94A2.41,2.41,0,0,0,172.28,265.12Z" style="fill:#BA68C8"></path><path d="M172.28,265.12a1,1,0,0,0-1.36.4,3.21,3.21,0,0,0-1.52-1.18,2.74,2.74,0,0,0-.19,2,1.26,1.26,0,0,0-1.14.82,2,2,0,0,0,1.48,1.08,3.7,3.7,0,0,0,.8,2c.67-.05,1.14-.67,1.14-1.54a1.08,1.08,0,0,0,.71.43,2.59,2.59,0,0,0,1.27,0,3.2,3.2,0,0,0-.44-1.28,2.93,2.93,0,0,0-.87-.94A2.41,2.41,0,0,0,172.28,265.12Z" style="fill:#fff;opacity:0.5"></path><path d="M171.51,266.83a.89.89,0,1,1-1.56.78.89.89,0,1,1,1.56-.78Z" style="fill:#BA68C8"></path><path d="M171.51,266.83a.89.89,0,1,1-1.56.78.89.89,0,1,1,1.56-.78Z" style="fill:#fff;opacity:0.7000000000000001"></path><path d="M175.26,241.93a1.51,1.51,0,0,0-1-1.41,3,3,0,0,0,.51-2,2.74,2.74,0,0,0-2.1.24,1.92,1.92,0,0,0-1.38-1.08,1.93,1.93,0,0,0-.41,1.89,3,3,0,0,0-1.7,1.36,1.85,1.85,0,0,0,2.11.91,1.08,1.08,0,0,0-.1.88,3.36,3.36,0,0,0,.6,1.41,2.8,2.8,0,0,0,1.11-.79,2.4,2.4,0,0,0,.56-1.17A2.42,2.42,0,0,0,175.26,241.93Z" style="fill:#BA68C8"></path><path d="M175.26,241.93a1.51,1.51,0,0,0-1-1.41,3,3,0,0,0,.51-2,2.74,2.74,0,0,0-2.1.24,1.92,1.92,0,0,0-1.38-1.08,1.93,1.93,0,0,0-.41,1.89,3,3,0,0,0-1.7,1.36,1.85,1.85,0,0,0,2.11.91,1.08,1.08,0,0,0-.1.88,3.36,3.36,0,0,0,.6,1.41,2.8,2.8,0,0,0,1.11-.79,2.4,2.4,0,0,0,.56-1.17A2.42,2.42,0,0,0,175.26,241.93Z" style="fill:#fff;opacity:0.5"></path><path d="M173.14,241.47a1.09,1.09,0,1,1,0-1.54A1.08,1.08,0,0,1,173.14,241.47Z" style="fill:#BA68C8"></path><path d="M173.14,241.47a1.09,1.09,0,1,1,0-1.54A1.08,1.08,0,0,1,173.14,241.47Z" style="fill:#fff;opacity:0.7000000000000001"></path><path d="M172.05,255.71a2,2,0,0,0,.22-1.8,1.22,1.22,0,1,0,.09-2.43,2.52,2.52,0,0,0-.14-1.81,1.57,1.57,0,0,0-1.26,1.07,1.78,1.78,0,0,0-1.65-.26,2.29,2.29,0,0,0,.63,2.22c-.24,0-.42.33-.54.56a4.46,4.46,0,0,0-.45,1.48,1.67,1.67,0,0,0,1,.25,1.62,1.62,0,0,0,.95-.45A2,2,0,0,0,172.05,255.71Z" style="fill:#BA68C8"></path><path d="M172.05,255.71a2,2,0,0,0,.22-1.8,1.22,1.22,0,1,0,.09-2.43,2.52,2.52,0,0,0-.14-1.81,1.57,1.57,0,0,0-1.26,1.07,1.78,1.78,0,0,0-1.65-.26,2.29,2.29,0,0,0,.63,2.22c-.24,0-.42.33-.54.56a4.46,4.46,0,0,0-.45,1.48,1.67,1.67,0,0,0,1,.25,1.62,1.62,0,0,0,.95-.45A2,2,0,0,0,172.05,255.71Z" style="fill:#fff;opacity:0.5"></path><path d="M171.18,253.81c-.47,0-.83-.52-.82-1.14s.39-1.13.85-1.12.83.52.82,1.14S171.64,253.82,171.18,253.81Z" style="fill:#BA68C8"></path><path d="M171.18,253.81c-.47,0-.83-.52-.82-1.14s.39-1.13.85-1.12.83.52.82,1.14S171.64,253.82,171.18,253.81Z" style="fill:#fff;opacity:0.7000000000000001"></path><path d="M175.31,217.57a1.22,1.22,0,0,0-.22,1.41,2.55,2.55,0,0,0-1.43.82,2.25,2.25,0,0,0,1.34,1.08,1.54,1.54,0,0,0,.16,1.41,1.58,1.58,0,0,0,1.33-.83,2.45,2.45,0,0,0,1.75.21,1.51,1.51,0,0,0-.68-1.74c.26,0,.44-.26.57-.44a2.83,2.83,0,0,0,.48-1.15,2.15,2.15,0,0,0-1.09-.2,2,2,0,0,0-1,.35A2,2,0,0,0,175.31,217.57Z" style="fill:#BA68C8"></path><path d="M175.31,217.57a1.22,1.22,0,0,0-.22,1.41,2.55,2.55,0,0,0-1.43.82,2.25,2.25,0,0,0,1.34,1.08,1.54,1.54,0,0,0,.16,1.41,1.58,1.58,0,0,0,1.33-.83,2.45,2.45,0,0,0,1.75.21,1.51,1.51,0,0,0-.68-1.74c.26,0,.44-.26.57-.44a2.83,2.83,0,0,0,.48-1.15,2.15,2.15,0,0,0-1.09-.2,2,2,0,0,0-1,.35A2,2,0,0,0,175.31,217.57Z" style="fill:#fff;opacity:0.5"></path><path d="M176.25,219.06a.89.89,0,0,1,0,1.77.9.9,0,0,1-.88-.9A.88.88,0,0,1,176.25,219.06Z" style="fill:#BA68C8"></path><path d="M176.25,219.06a.89.89,0,0,1,0,1.77.9.9,0,0,1-.88-.9A.88.88,0,0,1,176.25,219.06Z" style="fill:#fff;opacity:0.7000000000000001"></path><path d="M175.41,209.42a1,1,0,0,0-.24,1.23,2.57,2.57,0,0,0-1.43.69,2.24,2.24,0,0,0,1.33,1,1.16,1.16,0,0,0,.14,1.23,1.63,1.63,0,0,0,1.34-.71,2.71,2.71,0,0,0,1.74.22,1.25,1.25,0,0,0-.65-1.53.91.91,0,0,0,.57-.37,2.34,2.34,0,0,0,.49-1,2.46,2.46,0,0,0-1.09-.19,2.08,2.08,0,0,0-1,.28A2,2,0,0,0,175.41,209.42Z" style="fill:#BA68C8"></path><path d="M175.41,209.42a1,1,0,0,0-.24,1.23,2.57,2.57,0,0,0-1.43.69,2.24,2.24,0,0,0,1.33,1,1.16,1.16,0,0,0,.14,1.23,1.63,1.63,0,0,0,1.34-.71,2.71,2.71,0,0,0,1.74.22,1.25,1.25,0,0,0-.65-1.53.91.91,0,0,0,.57-.37,2.34,2.34,0,0,0,.49-1,2.46,2.46,0,0,0-1.09-.19,2.08,2.08,0,0,0-1,.28A2,2,0,0,0,175.41,209.42Z" style="fill:#fff;opacity:0.5"></path><path d="M176.33,210.74a.78.78,0,1,1,0,1.54.78.78,0,1,1,0-1.54Z" style="fill:#BA68C8"></path><path d="M176.33,210.74a.78.78,0,1,1,0,1.54.78.78,0,1,1,0-1.54Z" style="fill:#fff;opacity:0.7000000000000001"></path><path d="M218.4,293.69l-3.88,2.41a3.25,3.25,0,0,0-1.54,2.77v6.6c.57,1.17,2.91,1.2,4,.76v-7l3.47-2C222,295.44,220.37,293.4,218.4,293.69Z" style="fill:#455a64"></path><path d="M218.4,293.69l-3.88,2.41a3.25,3.25,0,0,0-1.54,2.77v6.6c.57,1.17,2.91,1.2,4,.76v-7l3.47-2C222,295.44,220.37,293.4,218.4,293.69Z" style="fill:#fff;opacity:0.30000000000000004"></path></g></svg>