<?xml version="1.0" encoding="iso-8859-1"?>
<!-- Generator: Adobe Illustrator 19.0.0, SVG Export Plug-In . SVG Version: 6.00 Build 0)  -->
<svg version="1.1" id="Layer_1" xmlns="http://www.w3.org/2000/svg" xmlns:xlink="http://www.w3.org/1999/xlink" x="0px" y="0px"
	 viewBox="0 0 512 512" style="enable-background:new 0 0 512 512;" xml:space="preserve">
<path style="fill:#AB91EA;" d="M512,256.006C512,397.402,397.394,512.004,256.004,512C114.606,512.004,0,397.402,0,256.006
	C-0.007,114.61,114.606,0,256.004,0C397.394,0,512,114.614,512,256.006z"/>
<path style="fill:#947ADB;" d="M503.1,322.948L274.934,94.783l-0.002-0.001l-6.822-6.822c-0.656-0.657-1.442-1.18-2.315-1.54
	c-1.732-0.716-3.682-0.716-5.413,0c-0.871,0.361-1.659,0.883-2.314,1.54l-56.699,56.699c-2.769,2.769-2.769,7.254,0,10.023
	c0.202,0.202,0.465,0.282,0.684,0.453c0.173,0.219,0.252,0.482,0.453,0.684s53.258,53.258,53.459,53.459
	c0.01,0.01,0.025,0.013,0.034,0.022v39.606c0,2.255,1.117,4.173,2.754,5.471c0.34,0.43,0.707,0.797,1.137,1.137
	c0.34,0.43,57.255,57.435,57.506,57.671c-2.724,0.989-4.691,3.538-4.691,6.605v14.177c0,3.309-0.825,6.404-2.179,9.2
	c-0.075-0.065-0.169-0.105-0.246-0.166c-0.34-0.43-112.177-112.266-112.606-112.606c-1.298-1.638-3.217-2.756-5.472-2.756h-49.619
	c-2.519,0-4.853,1.337-6.126,3.517l-49.619,85.061c-0.078,0.134-0.076,0.287-0.144,0.423c-0.211,0.42-0.326,0.868-0.452,1.331
	c-0.125,0.465-0.251,0.91-0.278,1.381c-0.01,0.153-0.087,0.282-0.087,0.436v99.238c0,2.255,1.117,4.173,2.754,5.471
	c0.34,0.43,0.707,0.797,1.137,1.137c0.34,0.429,65.541,65.631,65.971,65.971l0.001,0.001c30.793,13.119,64.676,20.391,100.263,20.39
	C374.225,512.003,473.667,431.86,503.1,322.948z"/>
<g>
	<path style="fill:#F4F6F9;" d="M426.035,319.357c-0.028-0.471-0.154-0.917-0.278-1.382c-0.126-0.464-0.24-0.912-0.452-1.332
		c-0.068-0.137-0.065-0.288-0.143-0.421l-49.619-85.061c-1.274-2.18-3.606-3.517-6.126-3.517h-35.443
		c-3.918,0-7.088,3.17-7.088,7.088c0,3.918,3.17,7.088,7.088,7.088h31.372l41.345,70.884h-86.894c-3.918,0-7.088,3.17-7.088,7.088
		v14.177c0,11.726-9.539,21.265-21.265,21.265h-63.796c-11.727,0-21.265-9.539-21.265-21.265v-14.177
		c0-3.918-3.17-7.088-7.088-7.088H105.31l41.345-70.884h45.549c3.918,0,7.088-3.17,7.088-7.088c0-3.918-3.17-7.088-7.088-7.088
		h-49.619c-2.519,0-4.852,1.337-6.126,3.517l-49.619,85.061c-0.078,0.134-0.076,0.286-0.144,0.422
		c-0.212,0.42-0.326,0.868-0.452,1.331c-0.125,0.465-0.251,0.91-0.278,1.381c-0.01,0.153-0.087,0.282-0.087,0.436v99.238
		c0,3.918,3.17,7.088,7.088,7.088h326.069c3.918,0,7.088-3.17,7.088-7.088v-99.238C426.123,319.637,426.045,319.508,426.035,319.357
		z M411.947,411.941H100.053V326.88h92.15v7.088c0,19.541,15.901,35.442,35.442,35.442h63.796c19.541,0,35.442-15.901,35.442-35.442
		v-7.088h85.062V411.941z"/>
	<path style="fill:#F4F6F9;" d="M211.392,154.681L256,110.073v138.834c0,3.918,3.17,7.088,7.088,7.088s7.088-3.17,7.088-7.088
		V110.073l44.608,44.608c1.385,1.385,3.198,2.077,5.012,2.077s3.628-0.692,5.012-2.077c2.769-2.769,2.769-7.254,0-10.023
		L268.11,87.958c-0.655-0.658-1.442-1.18-2.315-1.54c-1.731-0.716-3.681-0.716-5.413,0c-0.871,0.361-1.659,0.882-2.315,1.54
		l-56.699,56.699c-2.769,2.769-2.769,7.254,0,10.023C204.138,157.45,208.624,157.45,211.392,154.681z"/>
</g>
<g>
</g>
<g>
</g>
<g>
</g>
<g>
</g>
<g>
</g>
<g>
</g>
<g>
</g>
<g>
</g>
<g>
</g>
<g>
</g>
<g>
</g>
<g>
</g>
<g>
</g>
<g>
</g>
<g>
</g>
</svg>
