<?xml version="1.0" standalone="no"?>
<!DOCTYPE svg PUBLIC "-//W3C//DTD SVG 20010904//EN"
 "http://www.w3.org/TR/2001/REC-SVG-20010904/DTD/svg10.dtd">
<svg version="1.0" xmlns="http://www.w3.org/2000/svg"
 width="1000.000000pt" height="850.000000pt" viewBox="0 0 1000.000000 850.000000"
 preserveAspectRatio="xMidYMid meet">

<g transform="translate(0.000000,850.000000) scale(0.100000,-0.100000)"
fill="#000000" stroke="none">
<path d="M4814 8005 c-3 -6 -3 -78 -2 -160 l3 -150 40 -1 c22 -1 54 -4 70 -8
17 -3 48 -8 70 -10 171 -18 503 -145 680 -261 165 -108 348 -276 458 -422 187
-245 311 -549 347 -848 18 -152 -3 -135 175 -135 117 0 155 3 156 13 8 112
-41 380 -103 562 -225 659 -754 1162 -1423 1355 -80 23 -210 51 -222 48 -4 -1
-33 3 -63 10 -82 16 -181 20 -186 7z"/>
<path d="M4810 7281 c0 -179 -7 -161 65 -166 38 -3 134 -26 212 -51 423 -134
747 -512 820 -956 l16 -98 159 0 158 0 0 28 c0 16 -7 71 -16 123 -93 546 -460
993 -970 1184 -112 42 -271 80 -371 90 l-73 6 0 -160z"/>
<path d="M4480 7423 c-324 -56 -607 -200 -831 -423 -121 -121 -140 -144 -217
-260 -95 -145 -162 -308 -213 -520 -21 -84 -23 -119 -23 -310 1 -228 12 -309
68 -505 125 -431 426 -886 896 -1355 186 -187 223 -221 360 -340 41 -36 77
-68 80 -71 3 -3 29 -24 58 -47 40 -31 58 -40 70 -33 14 8 158 128 198 166 6 5
44 39 85 75 98 86 387 375 475 475 356 403 598 818 694 1192 31 117 60 307 52
331 -3 10 -40 12 -156 10 l-151 -3 -7 -57 c-23 -188 -115 -407 -238 -568 -58
-76 -164 -185 -210 -217 -14 -9 -27 -20 -30 -24 -3 -4 -41 -29 -85 -56 -106
-65 -227 -116 -355 -150 -96 -25 -121 -27 -285 -27 -184 0 -250 10 -403 60
-58 19 -213 97 -270 136 -396 268 -598 726 -527 1198 46 304 223 601 468 784
169 125 376 211 562 234 l60 7 3 153 3 152 -53 -1 c-29 -1 -64 -4 -78 -6z"/>
<path d="M4587 6956 c-31 -7 -59 -11 -61 -9 -2 2 -27 -3 -57 -11 -201 -53
-334 -129 -480 -275 -113 -113 -173 -204 -232 -351 -50 -125 -62 -201 -61
-380 0 -177 9 -220 44 -220 18 0 20 -6 20 -64 0 -59 2 -65 23 -68 12 -2 23 -9
23 -15 1 -7 2 -18 3 -24 0 -6 11 -9 24 -7 15 2 23 11 25 28 5 50 12 65 32 78
18 11 25 11 46 -3 19 -12 24 -24 24 -55 0 -21 5 -42 10 -45 6 -3 10 -30 10
-58 0 -37 3 -48 10 -37 5 8 10 59 10 113 0 77 3 97 14 97 8 0 16 10 18 23 2
14 10 22 23 22 13 0 21 -8 23 -22 2 -13 8 -23 13 -23 5 0 9 95 9 229 0 143 4
232 10 236 6 3 10 46 10 95 0 103 13 130 65 130 40 0 65 -30 65 -78 0 -21 4
-42 9 -48 17 -18 24 -102 27 -344 4 -320 3 -298 13 -280 5 8 12 35 16 60 4 25
15 53 24 64 13 15 17 49 19 205 l3 186 66 45 c121 83 108 94 111 -95 2 -166
11 -199 35 -136 6 15 28 39 49 52 21 13 38 27 38 30 0 12 70 20 88 10 40 -22
87 -227 80 -347 -5 -76 2 -94 34 -94 15 0 18 -12 20 -97 2 -66 7 -98 15 -100
10 -4 13 93 15 449 l3 453 23 3 c22 3 23 6 17 54 -8 55 0 68 43 68 12 0 22 5
22 12 0 9 3 9 12 0 7 -7 21 -12 33 -12 35 0 44 -17 33 -62 -9 -44 -5 -54 27
-60 19 -3 20 -12 23 -321 1 -200 6 -317 12 -317 6 0 10 22 10 49 0 33 5 53 16
62 14 12 16 30 9 148 -6 127 -6 133 12 126 36 -15 53 -17 53 -7 0 12 93 13
101 0 3 -4 20 -3 38 3 17 6 34 9 37 7 2 -3 0 -45 -5 -94 -5 -49 -11 -150 -13
-224 l-3 -135 27 -3 c25 -3 27 -7 30 -55 3 -44 6 -52 23 -52 13 0 21 8 23 23
3 17 10 22 33 22 28 0 29 -2 29 -45 0 -32 4 -45 14 -45 20 0 29 34 22 84 -6
40 -6 42 26 51 28 9 35 17 50 68 145 480 -55 981 -486 1217 -31 17 -56 27 -56
23 0 -4 -4 -2 -8 4 -5 7 -39 24 -78 37 -176 61 -348 80 -477 52z"/>
<path d="M5735 3489 c39 -4 259 -27 490 -49 231 -23 483 -47 560 -55 77 -8
518 -50 980 -95 462 -45 848 -84 858 -88 14 -6 -44 -68 -283 -307 -286 -285
-300 -299 -315 -280 -8 11 -81 110 -162 221 l-148 201 -370 5 c-203 3 -371 4
-373 3 -2 -2 75 -106 170 -232 180 -236 359 -473 415 -547 l32 -42 -352 -321
c-194 -176 -435 -396 -537 -489 -102 -93 -363 -331 -580 -528 -217 -197 -406
-370 -420 -384 -26 -26 94 64 165 123 22 19 83 67 135 107 53 40 102 79 110
86 8 7 51 40 95 74 44 34 123 96 174 138 52 41 107 84 122 95 15 11 107 83
204 160 98 77 267 210 375 295 108 85 275 217 371 292 96 75 350 274 564 443
215 168 417 328 450 354 57 45 98 77 370 292 66 52 245 193 398 313 152 120
277 220 277 222 0 2 -865 3 -1922 3 -1074 -1 -1892 -5 -1853 -10z"/>
<path d="M2900 3100 c-147 -11 -268 -42 -385 -99 -112 -55 -167 -98 -228 -179
-119 -155 -146 -204 -181 -324 -39 -134 -148 -741 -153 -854 -13 -242 63 -401
232 -491 213 -112 637 -120 914 -17 211 78 372 253 450 488 27 83 91 396 150
740 36 206 20 372 -46 485 -78 134 -258 229 -466 246 -145 11 -184 12 -287 5z
m181 -448 c54 -26 84 -70 100 -140 13 -64 13 -65 -57 -444 -68 -369 -87 -429
-156 -495 -62 -60 -119 -78 -243 -78 -99 0 -115 3 -155 25 -31 17 -52 39 -68
70 -21 40 -23 55 -19 135 6 112 109 662 138 739 24 62 81 133 133 165 86 53
242 64 327 23z"/>
<path d="M5605 3078 c-6 -15 -365 -1952 -365 -1968 0 -6 94 -10 274 -10 l274
0 6 28 c3 15 28 169 56 342 28 173 53 328 56 343 l6 28 91 -3 91 -3 91 -275
c50 -151 93 -280 95 -287 3 -7 103 80 227 197 l221 209 -34 108 c-19 59 -34
111 -34 115 0 4 14 15 32 24 49 25 137 112 180 178 47 73 78 170 111 346 36
189 40 238 28 305 -31 165 -140 265 -341 311 -63 14 -152 17 -567 21 -406 4
-494 2 -498 -9z m758 -442 c24 -12 48 -35 65 -65 24 -41 27 -56 27 -136 0
-121 -32 -181 -120 -228 -35 -19 -60 -22 -202 -25 -90 -2 -163 0 -163 5 0 4
16 107 35 228 19 121 35 226 35 233 0 23 274 12 323 -12z"/>
<path d="M551 3028 c-6 -29 -22 -116 -36 -193 -15 -77 -29 -150 -32 -162 l-5
-23 356 0 c346 0 356 -1 356 -19 0 -11 -9 -66 -20 -123 -10 -57 -71 -386 -135
-733 -64 -346 -118 -642 -121 -658 l-6 -27 261 0 261 0 5 22 c3 13 66 354 140
758 74 404 137 745 140 758 5 22 7 22 188 22 l182 0 49 75 c67 103 162 203
267 282 49 37 89 68 89 70 0 1 -434 3 -964 3 l-965 0 -10 -52z"/>
<path d="M3897 3073 c-3 -5 -39 -195 -82 -423 -42 -228 -97 -523 -122 -655
-50 -265 -64 -447 -44 -546 29 -141 113 -249 241 -313 241 -118 701 -109 963
19 195 95 332 272 401 520 20 68 266 1366 266 1399 0 3 -117 6 -260 6 -143 0
-260 -3 -260 -8 0 -33 -244 -1311 -260 -1360 -51 -160 -152 -232 -324 -232
-123 0 -203 37 -232 106 -30 71 -18 159 106 827 66 354 120 650 120 656 0 13
-506 16 -513 4z"/>
<path d="M7609 1761 c-388 -300 -721 -561 -740 -580 l-34 -34 32 22 c17 11 34
21 37 21 4 0 226 149 493 331 268 183 493 332 499 333 7 1 59 -73 116 -164
l104 -165 412 -3 c227 -1 412 0 412 3 0 7 -608 773 -618 779 -4 2 -325 -242
-713 -543z"/>
</g>
</svg>
